<?xml version="1.0" standalone="no"?>
<!DOCTYPE svg PUBLIC "-//W3C//DTD SVG 20010904//EN"
 "http://www.w3.org/TR/2001/REC-SVG-20010904/DTD/svg10.dtd">
<svg version="1.0" xmlns="http://www.w3.org/2000/svg"
 width="600.000000pt" height="600.000000pt" viewBox="0 0 600.000000 600.000000"
 preserveAspectRatio="xMidYMid meet">
<metadata>
Created by potrace 1.11, written by Peter Selinger 2001-2013
</metadata>
<g transform="translate(0.000000,600.000000) scale(0.100000,-0.100000)"
fill="#000000" stroke="none">
<path d="M1573 5765 c-3 -8 -2 -36 2 -62 11 -86 6 -137 -26 -238 l-32 -100 -4
-2464 c-3 -1356 -2 -2480 2 -2498 10 -55 34 -63 217 -74 277 -16 1843 -23
2223 -10 432 15 471 18 501 45 l23 21 2 2480 2 2480 -32 100 c-36 111 -50 208
-32 219 13 8 15 85 2 105 -7 11 -14 10 -40 -8 -17 -13 -29 -26 -26 -31 3 -5
-3 -13 -12 -19 -19 -10 -15 -13 32 -25 11 -2 -11 -3 -50 -3 -40 1 -69 6 -68
12 4 22 -39 28 -192 26 -88 -1 -180 2 -205 8 -25 5 -103 12 -175 16 -71 3
-179 10 -240 15 -60 5 -344 11 -630 12 -406 2 -526 0 -549 -10 -16 -7 -98 -18
-182 -24 -174 -14 -424 1 -476 27 -25 12 -30 12 -35 0z m1542 -45 c17 -4 -43
-7 -140 -7 -108 0 -150 3 -115 7 76 9 219 9 255 0z m658 -17 c-46 -2 -120 -2
-165 0 -46 1 -9 3 82 3 91 0 128 -2 83 -3z m-1648 -76 c38 -45 62 -51 188 -49
115 2 117 1 105 -18 -7 -11 -17 -20 -22 -20 -6 0 -1 -6 9 -14 23 -17 28 -45 9
-53 -16 -6 -19 -43 -3 -43 5 0 8 -4 4 -9 -3 -5 -58 -9 -123 -9 -67 1 -132 -4
-153 -10 -51 -17 -91 -63 -92 -104 0 -18 0 -201 1 -406 l2 -373 21 15 c12 8
58 51 104 95 45 45 87 81 92 81 6 0 16 6 23 14 14 18 180 100 235 116 22 7 48
16 57 21 10 5 27 9 37 9 11 0 22 4 25 9 10 16 127 24 346 24 123 1 241 -4 275
-11 33 -6 76 -14 95 -17 34 -6 65 -17 102 -36 10 -5 25 -9 33 -9 8 0 15 -4 15
-10 0 -5 9 -10 20 -10 11 0 20 -4 20 -10 0 -5 9 -10 19 -10 11 0 21 -4 23 -8
2 -4 28 -20 59 -35 30 -14 66 -38 79 -52 13 -14 29 -25 35 -25 15 0 115 -106
175 -185 25 -33 69 -107 98 -165 l52 -105 -3 583 -4 582 31 1 c17 1 -5 6 -49
10 -99 11 -116 17 -94 29 32 18 128 23 189 10 60 -13 81 -30 36 -30 -14 0 -28
-4 -31 -10 -3 -6 5 -10 19 -10 52 0 51 22 52 -1285 1 -1179 -2 -1422 -26
-1690 -14 -151 -15 -158 -31 -205 -7 -19 -14 -41 -16 -49 -2 -9 -7 -11 -13 -5
-15 15 -48 542 -51 807 0 75 -5 140 -10 143 -5 3 -9 -2 -9 -10 0 -9 -4 -16
-10 -16 -5 0 -10 -5 -10 -11 0 -16 -39 -97 -49 -104 -5 -3 -21 -29 -35 -58
-14 -28 -40 -66 -56 -84 -17 -18 -30 -35 -30 -40 0 -10 -92 -103 -103 -103 -4
0 -22 -13 -40 -30 -18 -16 -37 -30 -43 -30 -6 0 -19 -9 -29 -20 -10 -11 -24
-20 -32 -20 -7 0 -13 -4 -13 -10 0 -5 -6 -10 -14 -10 -8 0 -38 -13 -67 -28
-47 -24 -87 -38 -235 -83 -17 -5 -51 -9 -75 -9 -25 0 -50 -5 -55 -10 -18 -18
-465 -3 -514 17 -8 3 -33 8 -54 10 -22 1 -44 7 -50 13 -5 5 -17 10 -26 10 -19
0 -224 101 -248 123 -9 8 -22 16 -29 18 -17 6 -223 208 -223 220 0 5 -4 9 -10
9 -6 0 -10 -40 -11 -97 0 -54 -2 -114 -4 -133 -2 -19 -6 -109 -9 -199 -4 -91
-10 -169 -15 -175 -5 -6 -7 -27 -6 -46 4 -39 -13 -96 -26 -83 -4 4 -10 106
-13 226 -16 665 -18 710 -35 732 -5 5 -11 26 -14 45 -3 19 -10 53 -16 75 -48
169 -75 527 -52 670 7 39 16 99 22 135 15 95 29 161 41 195 7 20 12 225 15
594 3 495 1 567 -12 588 -9 12 -20 23 -25 23 -5 0 -21 5 -35 10 l-27 10 26 21
c16 12 26 30 26 46 0 66 53 123 145 155 68 24 96 22 120 -5z m909 17 c9 -3 16
-12 16 -19 0 -19 -51 -28 -86 -15 -28 11 -28 12 -10 26 21 15 54 18 80 8z m11
-233 c17 -7 15 -9 -14 -13 -44 -6 -88 2 -69 13 16 11 56 10 83 0z m-1069
-3406 c44 -8 99 -70 117 -130 12 -39 16 -44 16 -22 3 96 122 178 225 155 50
-11 101 -49 123 -91 23 -44 22 -123 -1 -170 -62 -126 -253 -121 -336 9 -27 42
-28 43 -34 20 -9 -36 -55 -87 -93 -102 -46 -20 -102 -17 -148 6 -22 11 -41 20
-42 20 -2 0 -3 -34 -3 -75 l0 -75 -30 0 -30 0 0 166 c0 153 2 169 22 206 32
55 118 103 168 93 8 -2 29 -6 46 -10z m1154 -5 c47 -24 75 -62 91 -124 l12
-48 12 36 c13 37 32 66 44 66 3 0 12 -9 18 -19 10 -16 9 -27 -3 -57 -20 -48
-12 -93 25 -128 36 -34 88 -43 129 -22 62 32 71 68 47 182 -6 26 -3 32 14 37
34 9 61 -35 61 -100 0 -109 -57 -174 -159 -181 -93 -7 -160 41 -182 130 l-13
48 -12 -36 c-35 -102 -152 -146 -252 -95 l-42 21 0 -80 0 -80 -30 0 -30 0 0
165 c0 180 7 211 54 255 58 53 147 65 216 30z m-387 -4 c68 -28 115 -118 101
-191 -9 -48 -42 -95 -84 -119 -45 -27 -135 -28 -173 -3 -14 9 -29 17 -32 17
-3 0 -5 -34 -5 -76 l0 -75 -32 3 -33 3 1 162 c1 155 3 164 27 206 45 76 147
108 230 73z m1307 -73 l0 -88 90 90 90 90 22 -24 23 -23 -87 -82 c-49 -44 -88
-86 -87 -91 0 -6 32 -34 70 -64 77 -58 88 -73 69 -96 -19 -23 -30 -19 -105 45
-38 33 -73 60 -77 60 -4 0 -8 -26 -10 -57 -3 -55 -4 -58 -30 -61 l-28 -3 0
195 0 196 30 0 30 0 0 -87z m-180 7 c98 -50 127 -187 59 -274 l-21 -27 -16 22
c-12 18 -13 28 -4 54 34 92 -4 171 -87 182 -102 14 -174 -88 -127 -179 31 -59
-13 -93 -54 -40 -19 23 -21 37 -18 98 3 59 8 77 31 107 56 74 157 98 237 57z"/>
<path d="M2780 4865 c-185 -34 -368 -110 -490 -203 -84 -64 -172 -158 -245
-263 -67 -96 -110 -215 -150 -414 -31 -152 -40 -259 -30 -369 7 -82 8 -86 28
-81 19 5 18 4 -3 -9 -24 -14 -23 -15 35 -18 l60 -4 -58 -2 -57 -2 6 -42 c20
-133 49 -238 66 -238 5 0 8 -9 8 -20 0 -19 1 -19 27 3 15 12 46 39 69 60 22
20 46 37 53 37 6 0 11 4 11 10 0 5 6 9 13 7 6 -1 11 4 10 11 -2 6 4 12 12 12
14 0 39 17 77 53 10 9 21 17 26 17 4 0 24 16 46 36 21 19 40 33 43 30 3 -2
-44 -44 -103 -93 -191 -157 -255 -213 -243 -213 23 0 224 55 227 62 2 5 17 8
33 8 16 0 63 9 105 21 41 11 78 18 81 15 4 -4 -74 -139 -100 -171 -7 -10 -21
-30 -101 -159 -21 -32 -35 -60 -33 -63 5 -4 92 49 287 173 47 30 91 58 99 63
10 6 6 18 -22 57 -82 116 -119 230 -118 364 0 47 5 99 10 115 7 23 8 17 4 -29
-6 -57 -6 -58 15 -45 12 7 23 20 26 29 2 8 4 -23 5 -69 2 -152 50 -274 153
-386 l52 -57 1 -137 c0 -75 -2 -143 -6 -152 -4 -8 -4 -21 0 -27 7 -12 194 -62
231 -62 32 0 33 -19 4 -58 -16 -20 -32 -38 -36 -40 -4 -2 -16 -20 -25 -40 -9
-20 -24 -42 -33 -49 -8 -6 -12 -15 -8 -18 4 -4 -3 -16 -15 -26 l-22 -18 22 -1
c12 0 25 -4 28 -10 8 -14 233 -13 309 1 126 23 211 42 221 51 5 4 17 8 27 8
10 0 26 4 36 9 9 5 51 25 92 45 41 20 93 50 115 66 22 16 56 40 75 53 66 45
166 166 213 256 16 31 34 63 41 71 7 8 18 31 26 50 7 19 21 54 31 77 11 24 19
50 19 60 0 19 18 79 31 105 5 10 9 40 9 67 0 28 3 52 8 54 8 6 -3 444 -13 522
-4 28 -11 54 -16 60 -5 5 -9 19 -9 32 0 13 -4 23 -10 23 -5 0 -10 13 -10 30 0
16 -9 45 -20 65 -11 20 -20 41 -20 48 0 18 -69 154 -85 167 -8 7 -15 17 -15
23 0 5 -16 27 -35 48 l-35 39 -17 -28 c-20 -30 -43 -56 -43 -48 0 3 14 26 32
51 17 24 30 47 27 49 -2 3 -92 -51 -199 -120 -107 -68 -199 -123 -205 -123 -5
0 -4 3 3 6 8 3 10 9 4 16 -6 8 -4 24 5 42 l14 30 -6 -37 c-3 -21 -4 -38 -1
-38 5 0 74 44 92 59 6 5 26 17 45 26 18 10 77 47 131 83 l97 65 -36 43 c-19
24 -39 44 -43 44 -4 0 -27 17 -51 38 -55 46 -61 50 -186 112 -177 89 -317 120
-523 118 -74 0 -164 -6 -200 -13z m396 -69 c-11 -30 -23 -52 -25 -51 -5 6 32
105 40 105 3 0 -3 -24 -15 -54z m41 -63 c-2 -21 -4 -6 -4 32 0 39 2 55 4 38 2
-18 2 -50 0 -70z m-390 20 c-2 -16 -4 -5 -4 22 0 28 2 40 4 28 2 -13 2 -35 0
-50z m-307 -33 c0 -5 -2 -10 -4 -10 -3 0 -8 5 -11 10 -3 6 -1 10 4 10 6 0 11
-4 11 -10z m1010 -4 c0 -2 -8 -10 -17 -17 -16 -13 -17 -12 -4 4 13 16 21 21
21 13z m-412 -69 c-11 -32 -23 -55 -26 -53 -2 3 6 30 18 61 29 72 35 66 8 -8z
m420 -5 c-6 -29 -13 -50 -16 -47 -2 2 1 27 8 55 7 28 14 49 16 47 3 -2 -1 -27
-8 -55z m-948 -4 c0 -13 -5 -9 -31 19 l-24 26 27 -19 c15 -10 28 -22 28 -26z
m637 -75 c-2 -21 -4 -4 -4 37 0 41 2 58 4 38 2 -21 2 -55 0 -75z m-410 50 c-3
-10 -5 -4 -5 12 0 17 2 24 5 18 2 -7 2 -21 0 -30z m132 -15 c6 -18 7 -28 2
-23 -10 12 -25 55 -18 55 3 0 10 -15 16 -32z m481 -3 c-13 -14 -26 -23 -28
-20 -7 6 29 44 42 44 5 1 -1 -10 -14 -24z m66 -120 c-13 -53 -27 -100 -31
-103 -4 -4 -5 2 -2 13 4 11 16 60 28 108 12 48 24 86 26 84 2 -3 -7 -48 -21
-102z m-806 38 c0 -4 -11 4 -25 17 -14 13 -25 28 -25 33 0 6 11 -2 25 -17 14
-15 25 -30 25 -33z m311 -38 c13 -27 25 -53 27 -57 2 -5 0 -8 -5 -8 -8 0 -64
131 -62 147 0 5 4 -1 9 -12 5 -11 19 -42 31 -70z m57 22 c-11 -32 -23 -56 -25
-54 -2 3 6 30 18 61 11 32 23 56 25 54 2 -2 -6 -30 -18 -61z m308 23 c-14 -17
-26 -27 -26 -22 0 13 41 64 47 58 3 -3 -6 -19 -21 -36z m-129 -92 c-2 -18 -4
-4 -4 32 0 36 2 50 4 33 2 -18 2 -48 0 -65z m-430 15 c-2 -16 -4 -5 -4 22 0
28 2 40 4 28 2 -13 2 -35 0 -50z m-536 40 c13 -17 13 -17 -6 -3 -11 8 -22 16
-24 17 -2 2 0 3 6 3 6 0 17 -8 24 -17z m444 -3 c10 -11 16 -20 13 -20 -3 0
-13 9 -23 20 -10 11 -16 20 -13 20 3 0 13 -9 23 -20z m605 -14 c0 -2 -7 -9
-15 -16 -13 -11 -14 -10 -9 4 5 14 24 23 24 12z m-1072 -47 c-3 -8 -7 -3 -11
10 -4 17 -3 21 5 13 5 -5 8 -16 6 -23z m512 6 c14 -19 14 -19 -2 -6 -10 7 -18
18 -18 24 0 6 1 8 3 6 1 -2 9 -13 17 -24z m-193 -27 c-3 -7 -5 -2 -5 12 0 14
2 19 5 13 2 -7 2 -19 0 -25z m723 29 c0 -2 -9 -12 -20 -22 -24 -21 -27 -14 -4
9 15 15 24 20 24 13z m484 -42 c-4 -8 -11 -15 -16 -15 -6 0 -5 6 2 15 7 8 14
15 16 15 2 0 1 -7 -2 -15z m-1308 -26 c3 -6 -5 -3 -20 6 -14 10 -26 19 -26 22
0 7 39 -17 46 -28z m-170 -6 c-7 -7 -26 7 -26 19 0 6 6 6 15 -2 9 -7 13 -15
11 -17z m302 -63 c0 -9 -3 -7 -8 5 -5 11 -8 29 -8 40 0 16 2 15 8 -5 4 -14 8
-32 8 -40z m1133 33 c-5 -10 -17 -27 -26 -38 -16 -19 -17 -19 -3 5 26 46 29
50 34 50 3 0 0 -8 -5 -17z m-1181 -13 c0 -5 -2 -10 -4 -10 -3 0 -8 5 -11 10
-3 6 -1 10 4 10 6 0 11 -4 11 -10z m1133 -67 c-3 -10 -21 -39 -40 -66 -18 -26
-33 -49 -33 -51 0 -2 10 -2 23 0 21 4 21 4 -2 -6 -13 -6 -28 -9 -32 -8 -7 3
79 148 87 148 2 0 1 -8 -3 -17z m317 -27 c0 -2 -15 -6 -34 -8 -19 -2 -32 0
-30 4 5 8 64 12 64 4z m-95 -26 c-11 -5 -29 -8 -40 -8 -16 0 -15 2 5 8 34 11
60 11 35 0z m95 0 c0 -5 -5 -10 -11 -10 -5 0 -7 5 -4 10 3 6 8 10 11 10 2 0 4
-4 4 -10z m-1823 -6 c-3 -3 -12 -4 -19 -1 -8 3 -5 6 6 6 11 1 17 -2 13 -5z
m-126 -21 c13 -16 12 -17 -3 -4 -17 13 -22 21 -14 21 2 0 10 -8 17 -17z m1884
-17 c-36 -31 -109 -79 -94 -62 10 11 124 95 129 96 3 0 -13 -16 -35 -34z
m-170 9 c-27 -8 -51 -12 -53 -10 -6 5 58 23 83 23 11 0 -2 -6 -30 -13z m-687
-12 c-10 -2 -28 -2 -40 0 -13 2 -5 4 17 4 22 1 32 -1 23 -4z m147 -18 c6 -3
-15 -2 -45 1 -30 3 -59 10 -63 14 -8 7 87 -6 108 -15z m470 15 c-3 -5 -14 -10
-23 -9 -14 0 -13 2 3 9 27 11 27 11 20 0z m-696 -4 c-2 -2 -26 -6 -54 -9 -34
-4 -42 -3 -25 3 25 8 87 13 79 6z m-888 -23 c13 -16 12 -17 -3 -4 -10 7 -18
15 -18 17 0 8 8 3 21 -13z m296 11 c-3 -3 -12 -4 -19 -1 -8 3 -5 6 6 6 11 1
17 -2 13 -5z m458 -19 c-16 -8 -37 -14 -45 -14 -8 0 -1 6 15 14 17 7 37 13 45
13 8 0 2 -6 -15 -13z m432 -11 c-5 -5 -57 13 -57 20 0 3 14 0 31 -6 16 -6 28
-12 26 -14z m98 -50 c30 -19 79 -62 110 -96 59 -64 60 -64 105 -17 8 8 23 19
34 22 11 4 4 -7 -17 -28 -20 -20 -34 -42 -31 -49 3 -8 0 -17 -7 -22 -8 -4 -10
-3 -5 4 7 11 -14 17 -39 12 -5 -1 -7 1 -3 5 10 10 -15 33 -29 28 -7 -3 -13 0
-13 6 0 6 -7 11 -15 11 -8 0 -15 6 -15 13 0 8 -4 7 -10 -3 -5 -8 -10 -10 -10
-5 0 14 -71 61 -87 57 -7 -2 -13 3 -13 10 0 7 -18 21 -40 32 -42 20 -46 34
-15 52 25 15 34 12 100 -32z m-1224 19 c13 -16 12 -17 -3 -4 -10 7 -18 15 -18
17 0 8 8 3 21 -13z m609 13 c0 -2 -15 -13 -32 -25 -18 -11 -44 -28 -58 -38
-13 -10 -21 -13 -17 -6 6 10 95 73 104 73 2 0 3 -2 3 -4z m-549 -63 c13 -16
12 -17 -3 -4 -10 7 -18 15 -18 17 0 8 8 3 21 -13z m1489 -17 c0 -2 -12 -11
-27 -20 l-28 -17 24 20 c23 21 31 25 31 17z m-1435 -26 c10 -11 16 -20 13 -20
-3 0 -13 9 -23 20 -10 11 -16 20 -13 20 3 0 13 -9 23 -20z m365 17 c0 -2 -12
-14 -27 -28 l-28 -24 24 28 c23 25 31 32 31 24z m-310 -67 c0 -5 -12 -10 -27
-9 l-28 1 25 8 c14 4 26 8 28 9 1 1 2 -3 2 -9z m260 7 c0 -2 -10 -12 -22 -23
l-23 -19 19 23 c18 21 26 27 26 19z m-407 -24 c-13 -2 -33 -2 -45 0 -13 2 -3
4 22 4 25 0 35 -2 23 -4z m-238 -63 c13 -6 15 -9 5 -9 -8 0 -22 4 -30 9 -18
12 -2 12 25 0z m563 -35 c-6 -14 -13 -23 -15 -21 -5 5 15 46 22 46 3 0 -1 -11
-7 -25z m-378 -39 c19 -8 31 -15 25 -16 -12 0 -123 45 -132 54 -8 7 55 -15
107 -38z m351 -23 c-12 -20 -14 -14 -5 12 4 9 9 14 11 11 3 -2 0 -13 -6 -23z
m-280 -11 c-7 -2 -18 1 -23 6 -8 8 -4 9 13 5 13 -4 18 -8 10 -11z m49 -12 c8
-5 11 -10 5 -10 -5 0 -17 5 -25 10 -8 5 -10 10 -5 10 6 0 17 -5 25 -10z m45
-20 c3 -5 4 -10 1 -10 -2 0 -12 -3 -20 -6 -12 -5 -15 -2 -10 10 7 18 20 21 29
6z m216 -42 c-3 -21 -6 -26 -9 -15 -3 17 3 47 11 47 2 0 1 -15 -2 -32z m-271
12 c-8 -5 -19 -10 -25 -10 -5 0 -3 5 5 10 8 5 20 10 25 10 6 0 3 -5 -5 -10z
m-50 -20 c-8 -5 -19 -10 -25 -10 -5 0 -3 5 5 10 8 5 20 10 25 10 6 0 3 -5 -5
-10z m-170 -64 c0 -2 -7 -7 -16 -10 -8 -3 -12 -2 -9 4 6 10 25 14 25 6z m63
-93 c-13 -2 -35 -2 -50 0 -16 2 -5 4 22 4 28 0 40 -2 28 -4z m154 -10 c-20 -2
-52 -2 -70 0 -17 2 0 4 38 4 39 0 53 -2 32 -4z m673 -279 c-11 -19 -11 -26 0
-39 29 -35 87 6 63 44 -9 15 -9 23 1 36 12 17 14 16 29 -6 38 -54 4 -129 -59
-129 -71 0 -111 84 -62 130 20 18 23 19 31 4 6 -10 5 -25 -3 -40z"/>
<path d="M1853 1931 c-40 -25 -53 -49 -53 -98 0 -66 52 -113 126 -113 28 0 44
8 70 34 29 29 34 41 34 80 0 36 -6 52 -28 77 -37 41 -102 50 -149 20z"/>
<path d="M2233 1934 c-92 -46 -75 -187 27 -214 82 -22 150 30 150 115 0 90
-91 141 -177 99z"/>
<path d="M2978 1944 c-63 -34 -77 -122 -27 -178 51 -58 126 -61 180 -6 25 24
29 37 29 80 0 46 -4 56 -34 86 -28 28 -41 34 -77 34 -24 -1 -56 -7 -71 -16z"/>
<path d="M2584 1916 c-29 -29 -34 -41 -34 -81 0 -40 5 -52 34 -81 28 -28 42
-34 76 -34 80 0 119 38 120 117 0 44 -4 56 -31 82 -26 26 -38 31 -81 31 -44 0
-54 -4 -84 -34z"/>
<path d="M2559 266 c-4 -3 -237 -14 -344 -17 -32 0 -36 -2 -20 -9 18 -8 18 -9
-5 -10 -19 0 -22 -3 -10 -9 8 -5 166 -14 350 -20 541 -18 922 -12 887 14 -9 7
-14 15 -11 18 3 3 -5 11 -18 18 -15 9 -78 15 -192 17 -138 3 -183 1 -250 -14
-79 -19 -80 -19 -41 -25 25 -4 4 -6 -55 -6 -52 0 -82 2 -65 4 16 3 33 10 37
16 6 9 8 9 8 0 0 -7 8 -13 18 -13 14 0 15 2 2 10 -12 8 -12 10 5 11 17 1 16 2
-5 9 -25 8 -283 14 -291 6z"/>
<path d="M1640 240 c0 -5 5 -10 11 -10 5 0 7 5 4 10 -3 6 -8 10 -11 10 -2 0
-4 -4 -4 -10z"/>
</g>
</svg>
